<svg width="1440" height="408" viewBox="0 0 1440 408" fill="none" xmlns="http://www.w3.org/2000/svg">
<path fill-rule="evenodd" clip-rule="evenodd" d="M0 389L16 396C32 403 64 418 96 396C128 374 160 317 192 310C224 302 256 346 288 317C320 288 352 187 384 158C416 130 448 173 480 223C512 274 544 331 576 310C608 288 640 187 672 151C704 115 736 144 768 173C800 202 832 230 864 266C896 302 928 346 960 310C992 274 1024 158 1056 144C1088 130 1120 216 1152 209C1184 202 1216 101 1248 115C1280 130 1312 259 1344 295C1376 331 1408 274 1424 245L1440 216V9.15527e-05H1424C1408 9.15527e-05 1376 9.15527e-05 1344 9.15527e-05C1312 9.15527e-05 1280 9.15527e-05 1248 9.15527e-05C1216 9.15527e-05 1184 9.15527e-05 1152 9.15527e-05C1120 9.15527e-05 1088 9.15527e-05 1056 9.15527e-05C1024 9.15527e-05 992 9.15527e-05 960 9.15527e-05C928 9.15527e-05 896 9.15527e-05 864 9.15527e-05C832 9.15527e-05 800 9.15527e-05 768 9.15527e-05C736 9.15527e-05 704 9.15527e-05 672 9.15527e-05C640 9.15527e-05 608 9.15527e-05 576 9.15527e-05C544 9.15527e-05 512 9.15527e-05 480 9.15527e-05C448 9.15527e-05 416 9.15527e-05 384 9.15527e-05C352 9.15527e-05 320 9.15527e-05 288 9.15527e-05C256 9.15527e-05 224 9.15527e-05 192 9.15527e-05C160 9.15527e-05 128 9.15527e-05 96 9.15527e-05C64 9.15527e-05 32 9.15527e-05 16 9.15527e-05H0V389Z" fill="white"/>
</svg>
